<?xml version="1.0" encoding="utf-8"?>
<!-- Generator: Adobe Illustrator 15.0.0, SVG Export Plug-In  -->
<!DOCTYPE svg PUBLIC "-//W3C//DTD SVG 1.1//EN" "http://www.w3.org/Graphics/SVG/1.1/DTD/svg11.dtd" [
	<!ENTITY ns_flows "http://ns.adobe.com/Flows/1.0/">
]>
<svg version="1.1"
	 xmlns="http://www.w3.org/2000/svg" xmlns:xlink="http://www.w3.org/1999/xlink" xmlns:a="http://ns.adobe.com/AdobeSVGViewerExtensions/3.0/"
	 x="0px" y="0px" width="250px" height="105px" viewBox="-0.25 -1 250 105"
	 overflow="visible" enable-background="new -0.25 -1 250 105" xml:space="preserve">
<defs>
</defs>
<rect x="35.75" fill="#BFBFBF" width="10" height="92"/>
<rect x="16.75" fill="#BFBFBF" width="10" height="92"/>
<rect x="55.75" fill="#BFBFBF" width="10" height="92"/>
<rect x="75.75" fill="#BFBFBF" width="10" height="92"/>
<rect x="95.75" fill="#BFBFBF" width="10" height="92"/>
<rect x="115.75" fill="#BFBFBF" width="10" height="92"/>
<rect x="135.75" fill="#BFBFBF" width="10" height="92"/>
<rect x="155.75" fill="#BFBFBF" width="10" height="92"/>
<rect x="175.75" fill="#BFBFBF" width="10" height="92"/>
<rect x="195.75" fill="#BFBFBF" width="10" height="92"/>
<rect x="215.75" fill="#BFBFBF" width="10" height="92"/>
<rect x="235.75" fill="#BFBFBF" width="10" height="92"/>
<text transform="matrix(1 0 0 1 38.5 100.5)" fill="#333333" font-family="'GillSansMT-Bold'" font-size="7">M</text>
<text transform="matrix(1 0 0 1 59.25 100.5)" fill="#333333" font-family="'GillSansMT-Bold'" font-size="7">T</text>
<text transform="matrix(1 0 0 1 19 100.5)" fill="#333333" font-family="'GillSansMT-Bold'" font-size="7">S</text>
<text transform="matrix(1 0 0 1 139.25 100.5)" fill="#333333" font-family="'GillSansMT-Bold'" font-size="7">S</text>
<text transform="matrix(1 0 0 1 99.5 100.5)" fill="#333333" font-family="'GillSansMT-Bold'" font-size="7">T</text>
<text transform="matrix(1 0 0 1 120.25 100.5)" fill="#333333" font-family="'GillSansMT-Bold'" font-size="7">F</text>
<text transform="matrix(1 0 0 1 78 100.5)" fill="#333333" font-family="'GillSansMT-Bold'" font-size="7">W</text>
<text transform="matrix(1 0 0 1 178.25 100.5)" fill="#333333" font-family="'GillSansMT-Bold'" font-size="7">M</text>
<text transform="matrix(1 0 0 1 199 100.5)" fill="#333333" font-family="'GillSansMT-Bold'" font-size="7">T</text>
<text transform="matrix(1 0 0 1 158.75 100.5)" fill="#333333" font-family="'GillSansMT-Bold'" font-size="7">S</text>
<text transform="matrix(1 0 0 1 239.25 100.5)" fill="#333333" font-family="'GillSansMT-Bold'" font-size="7">T</text>
<text transform="matrix(1 0 0 1 217.75 100.5)" fill="#333333" font-family="'GillSansMT-Bold'" font-size="7">W</text>
<text transform="matrix(1 0 0 1 7 91.75)" fill="#333333" font-family="'GillSansMT-Bold'" font-size="7">0</text>
<text transform="matrix(1 0 0 1 0 74.75)" fill="#333333" font-family="'GillSansMT-Bold'" font-size="7">100</text>
<text transform="matrix(1 0 0 1 0 57.5)" fill="#333333" font-family="'GillSansMT-Bold'" font-size="7">200</text>
<text transform="matrix(1 0 0 1 0 40.25)" fill="#333333" font-family="'GillSansMT-Bold'" font-size="7">300</text>
<text transform="matrix(1 0 0 1 0 23.25)" fill="#333333" font-family="'GillSansMT-Bold'" font-size="7">400</text>
<text transform="matrix(1 0 0 1 0 7)" fill="#333333" font-family="'GillSansMT-Bold'" font-size="7">500</text>
<rect x="35.75" y="21" fill="#00969F" width="10" height="71"/>
<rect x="16.75" y="52" fill="#00969F" width="10" height="40"/>
<rect x="55.75" y="39" fill="#00969F" width="10" height="53"/>
<rect x="75.75" y="14" fill="#00969F" width="10" height="78"/>
<rect x="95.75" y="27" fill="#00969F" width="10" height="65"/>
<rect x="115.75" y="79" fill="#00969F" width="10" height="13"/>
<rect x="135.75" y="9" fill="#00969F" width="10" height="83"/>
<rect x="155.75" y="21" fill="#00969F" width="10" height="71"/>
<rect x="175.75" y="33" fill="#00969F" width="10" height="59"/>
<rect x="195.75" y="57" fill="#00969F" width="10" height="35"/>
<rect x="215.75" y="14" fill="#00969F" width="10" height="78"/>
<rect x="235.75" y="44" fill="#00969F" width="10" height="48"/>
</svg>
